<?xml version="1.0" encoding="utf-8"?>
<!-- Generator: Adobe Illustrator 22.0.0, SVG Export Plug-In . SVG Version: 6.00 Build 0)  -->
<svg version="1.1" id="Layer_1" xmlns="http://www.w3.org/2000/svg" xmlns:xlink="http://www.w3.org/1999/xlink" x="0px" y="0px"
	 viewBox="0 0 900 246" style="enable-background:new 0 0 900 246;" xml:space="preserve">
<style type="text/css">
	.st0{fill-rule:evenodd;clip-rule:evenodd;fill:#FFFFFF;}
</style>
<path class="st0" d="M721.7,91.8c-0.4-0.4-1-0.9-1.3-1.2c-4-4-8-8-12-12c-0.3-0.3-1.1-1.1-1.8-1.8c-0.3,0.9-0.6,2-0.8,2.5
	c-2.4,7.6-4.8,15.2-7.3,22.8c-0.2,0.6-0.8,2.4-1.2,3.9c1-0.5,2-1.1,2.4-1.4c7-4.1,14.1-8.3,21.1-12.4
	C721.2,92.1,721.4,91.9,721.7,91.8 M766.3,143.8c-24.9,0-49.9,0-74.8,0c-1.2,0-4.4-0.2-5.5,0.4c-0.7,0.4-1.1,1.5-1.4,2.2
	c-6.7,21.1-13.4,42.2-20.1,63.2c-1.1,3.6-4.9,6.5-8.7,6.5c-35.2,0-70.4,0-105.7,0c-4.4,0-6.9-3.9-5.6-8c17-53.5,34-106.9,51-160.4
	c1.1-3.6,4.9-6.5,8.7-6.5c62.2,0,124.3,0,186.5,0c2.7,0,6.1,1.2,7.7,3.4c9.2,12.9,18.5,25.8,27.7,38.7c1.5,2.2,3.8,4.6,4,7.3
	c0.3,3.1-2.1,5.6-4.3,7.4c-17.4,14.2-34.8,28.4-52.2,42.7C771.8,142.3,768.6,143.8,766.3,143.8z M416,74.3c-0.9,0.5-2.5,1.8-3,2.2
	l-60.5,47.6c-0.6,0.5-3.6,2.8-4,3.6c0.2,0.7,2,3,2.3,3.6c8.8,12.5,17.5,25,26.3,37.5c0.9,1.3,4.5,7.2,6,7.4c0.5,0.1,1.3-0.7,1.6-1
	l35.1-36.8c2.1-2.2,5.8-4.6,8.9-4.6h111.1c4.8,0,5.1,4.7,2.5,7.9l-59,69.9c-2,2.4-5.8,4.7-9,4.7c-61.2,0-122.3,0-183.5,0
	c-3.3,0-7.1-2.8-8.9-5.4l-53.3-75.9c-3.8-5.5-6.1-8.1,0.2-13.1L325.1,46c2.6-2,7.4-4.7,10.7-4.7c60.3,0,120.6,0,181,0
	c3.1,0,6.3,2.4,7.4,5.2l25.7,66.7c1.3,3.5-0.7,7-4.5,7H439.1c-3.1,0-6.3-2.4-7.4-5.2c-5.1-13.2-10.2-26.4-15.2-39.5
	C416.4,75.2,416.2,74.7,416,74.3z M129.9,41.3h100.4c4.4,0,6.9,3.9,5.6,8l-51,160.4c-1.1,3.6-4.9,6.5-8.7,6.5H75.8
	c-4.4,0-6.9-3.9-5.6-8l51-160.4C122.3,44.2,126.1,41.3,129.9,41.3z"/>
<path class="st0" d="M604.2,38.9c62.2,0,124.3,0,186.5,0c1.5,0,4.5,0.7,5.8,2.4c9.2,12.9,18.5,25.8,27.7,38.7
	c3.2,4.5,6.1,6.6,0.2,11.4c-17.4,14.2-34.8,28.4-52.2,42.7c-1.7,1.4-4.3,2.5-5.9,2.5c-26.2,0-48.6,0-74.8,0c-4.9,0-7.7-0.5-9.2,4.3
	c-6.7,21.1-13.4,42.2-20.1,63.2c-0.8,2.7-3.7,4.8-6.4,4.8c-35.2,0-70.4,0-105.7,0c-2.7,0-4.1-2.2-3.3-4.8c17-53.5,34-106.9,51-160.4
	C598.7,41.1,601.5,38.9,604.2,38.9 M701.1,101.9c7.5-4.4,13.7-8,21.1-12.4c3.9-2.3,2-3.3-0.1-5.4c-4-4-8-8-12-12
	c-4.8-4.9-4.6-4.5-6.5,1.7c-2.9,9.2-4.3,13.6-7.3,22.8C693.7,105,693.5,106.3,701.1,101.9z M428.7,131.3h111.1
	c2.1,0,2.4,1.7,0.6,3.9l-59,69.9c-1.8,2.1-5,3.9-7.1,3.9c-61.2,0-122.3,0-183.5,0c-2.1,0-5.3-2-7-4.4l-53.3-75.9
	c-3.5-5.1-5-6-0.2-9.8l96.3-75.8c2.9-2.3,7.1-4.2,9.2-4.2c60.3,0,120.6,0,181,0c2,0,4.3,1.7,5.1,3.7l25.7,66.7
	c0.8,2-0.2,3.7-2.3,3.7H439.1c-2,0-4.3-1.7-5.1-3.7c-5.2-13.5-10-26-15.2-39.5c-1.7-4.4-3.3-3-7.2,0.1l-60.5,47.6
	c-6.6,5.2-5.8,5.2-2.1,10.4c10.9,15.5,15.5,22,26.3,37.5c3.9,5.5,6.7,11.6,11.3,6.7l35.1-36.8C423.5,133.1,426.5,131.3,428.7,131.3z
	 M129.9,38.9h100.4c2.7,0,4.1,2.2,3.3,4.8l-51,160.4c-0.8,2.7-3.7,4.8-6.4,4.8H75.8c-2.7,0-4.1-2.2-3.3-4.8l51-160.4
	C124.4,41.1,127.2,38.9,129.9,38.9z"/>
</svg>
