<svg xmlns="http://www.w3.org/2000/svg" width="280" height="74" viewBox="0 0 280 74">
    <g fill="none" fill-rule="evenodd">
        <path fill="#FDDA00" d="M62.14 27.165c-2.537 4.606-7.006 7.811-13.282 7.811-10.077 0-15.753-8.077-15.753-17.624C33.105 8.409 38.577 0 48.725 0c6.474 0 11.082 3.336 13.616 8.275l-6.54 3.271c-1.536-3.204-4.271-4.538-6.741-4.538-4.675 0-7.545 4.138-7.545 10.213 0 8.14 4.209 10.747 7.876 10.747 2.873 0 5.074-1.607 6.343-4.206l6.406 3.403zm10.412-9.944c0 8.14 4.34 10.747 8.078 10.747 4.537 0 7.541-4.274 7.541-10.213 0-7.809-4.203-10.747-7.875-10.747-4.74 0-7.744 4.138-7.744 10.213zm-8.542.131C64.01 8.409 69.682 0 80.296 0c10.478 0 16.419 8.076 16.419 17.622 0 8.943-5.674 17.354-16.286 17.354-10.479 0-16.419-8.077-16.419-17.624zM8.544 13.814h13.083c0-5.27-3.939-7.274-6.542-7.274-3.335 0-6.541 2.87-6.541 7.274zm-.133 6.61c.267 4.936 4.073 7.544 8.343 7.544 3.003 0 6.14-1.27 8.075-3.94l5.274 4.27c-3.005 3.873-6.942 6.678-14.35 6.678C5.674 34.976 0 26.9 0 17.352 0 8.409 5.474 0 15.619 0c7.008 0 14.685 4.94 14.685 17.82 0 .87-.065 1.737-.133 2.604H8.411z"/>
        <path fill="#FFF" d="M258.487.8h8.676v26.03h12.816v7.343h-21.492V.8zM230.321 17.22c0 8.14 4.338 10.747 8.077 10.747 4.538 0 7.542-4.274 7.542-10.213 0-7.81-4.208-10.747-7.879-10.747-4.737 0-7.74 4.137-7.74 10.213zm-8.545.131C221.776 8.41 227.45 0 238.06 0c10.481 0 16.421 8.076 16.421 17.622 0 8.943-5.673 17.354-16.287 17.354-10.48 0-16.42-8.077-16.42-17.624zm-21.626-9.61v7.677h7.342c2.338 0 3.807-1.737 3.807-3.808 0-2.133-1.402-3.869-3.737-3.869h-7.412zm3.138 14.285h-3.138v12.146h-8.676V.8h16.018c7.476 0 11.95 4.806 11.95 10.614 0 4.403-2.536 8.143-6.943 9.812l7.942 12.947H210.5l-7.21-12.146zM188.394.8v7.342h-8.743v26.031h-8.68V8.143h-8.743V.8h26.166zm-48.98 13.015h13.08c0-5.271-3.938-7.275-6.54-7.275-3.336 0-6.54 2.87-6.54 7.275zm-.135 6.608c.268 4.938 4.074 7.545 8.344 7.545 3.004 0 6.14-1.27 8.077-3.94l5.273 4.27c-3.004 3.873-6.943 6.678-14.352 6.678-10.078 0-15.75-8.077-15.75-17.624C130.87 8.41 136.341 0 146.488 0c7.008 0 14.68 4.94 14.68 17.82 0 .87-.064 1.737-.13 2.603h-21.76zM109.833 7.874v8.412h7.342c2.34 0 3.804-1.87 3.804-4.205 0-2.34-1.402-4.207-3.737-4.207h-7.409zM117.175.8c7.476 0 11.95 5.073 11.95 11.281 0 6.207-4.474 11.28-11.95 11.28h-7.342v10.812h-8.676V.8h16.018z"/>
        <text fill="#FFF" font-family="AvenirNext-Medium, Avenir Next" font-size="24" font-weight="400" letter-spacing="2">
            <tspan x="0" y="64">energía para el futuro</tspan>
        </text>
    </g>
</svg>
