<svg xmlns="http://www.w3.org/2000/svg" width="520" height="300" viewBox="0 0 520 300">
    <g fill="none" fill-rule="evenodd">
        <path fill="#FFF" d="M135 70h230v215c0 8.284-6.716 15-15 15H150c-8.284 0-15-6.716-15-15V70z"/>
        <g stroke="#3364E0" stroke-width="1.6" transform="translate(165 100)">
            <rect width="44.4" height="44.4" x="62.8" y=".8" rx="6"/>
            <rect width="44.4" height="44.4" x="124.8" y=".8" rx="6"/>
            <rect width="44.4" height="44.4" x=".8" y=".8" rx="6"/>
        </g>
        <g transform="translate(165 162)">
            <rect width="44.4" height="44.4" x="62.8" y=".8" stroke="#3364E0" stroke-width="1.6" rx="6"/>
            <rect width="44.4" height="44.4" x="124.8" y=".8" stroke="#3364E0" stroke-width="1.6" rx="6"/>
            <rect width="44.4" height="44.4" x=".8" y=".8" fill="#3BD550" stroke="#3BD550" stroke-width="1.6" rx="6"/>
            <path stroke="#FFF" stroke-linecap="round" stroke-linejoin="round" stroke-width="2.2" d="M31.4 17L21 29l-5.6-5.6"/>
        </g>
        <g stroke="#3364E0" stroke-width="1.6" transform="translate(165 224)">
            <rect width="44.4" height="44.4" x="62.8" y=".8" rx="6"/>
            <rect width="44.4" height="44.4" x="124.8" y=".8" rx="6"/>
            <rect width="44.4" height="44.4" x=".8" y=".8" rx="6"/>
        </g>
        <g transform="translate(135 8)">
            <path fill="#3BD550" d="M0 62V27c0-8.284 6.716-15 15-15h200c8.284 0 15 6.716 15 15v35H0zm115-15c5.523 0 10-4.477 10-10s-4.477-10-10-10-10 4.477-10 10 4.477 10 10 10zm75 0c5.523 0 10-4.477 10-10s-4.477-10-10-10-10 4.477-10 10 4.477 10 10 10zM40 47c5.523 0 10-4.477 10-10s-4.477-10-10-10-10 4.477-10 10 4.477 10 10 10z"/>
            <rect width="12" height="40" x="109" fill="#FFF" rx="6"/>
            <rect width="12" height="40" x="184" fill="#FFF" rx="6"/>
            <rect width="12" height="40" x="34" fill="#FFF" rx="6"/>
        </g>
        <g>
            <path fill="#D4A181" d="M42.265 253.71l18.81-9.84-7.429-10.48-20.427 11.108 6.52 8.266z"/>
            <path fill="#181F42" d="M37.79 240.089s3.177 11.648 12.328 10.998l3.528 27.753-27.002-34.24 11.145-4.511z"/>
            <path fill="#FFF" d="M50.412 281.39l-27-34.24 3.232-2.55 27.002 34.24z"/>
            <path stroke="#FFF" stroke-linecap="round" stroke-linejoin="round" stroke-width="1.504" d="M50.58 254.716s-2.11-.677-5.26-.53M51.362 258.778s-2.11-.676-5.26-.53M52.144 262.84s-2.11-.677-5.26-.53"/>
            <path fill="#D4A181" d="M59.053 288.702l1.903-20.861-12.829-.66-1.909 22.919h10.526z"/>
            <path fill="#181F42" d="M44.577 283.781s11.115 4.719 16.27-2.87l23.977 14.415H41.219l3.358-11.545z"/>
            <path fill="#FFF" d="M41.219 299.444h43.605v-4.118H41.219z"/>
            <path stroke="#FFF" stroke-linecap="round" stroke-linejoin="round" stroke-width="1.504" d="M63.983 282.797s-1.837 1.237-3.674 3.802M67.657 284.697s-1.837 1.238-3.674 3.803M71.33 286.598s-1.837 1.237-3.674 3.802"/>
            <g>
                <path fill="#181F83" d="M92.812 150.846l13.083 57.696c.802 5.5-1.32 11.022-5.53 14.388l-39.06 30.545.722-28.127 19.51-15.922-20.232-60.168 31.507 1.588z"/>
                <path fill="#3364E0" d="M92.812 150.846l13.083 57.696c.802 5.5-1.32 11.022-5.53 14.388l-39.06 30.545.722-28.127 19.51-15.922-20.232-60.168 31.507 1.588z" opacity=".8"/>
                <path fill="#3364E0" d="M49.616 149.433l-5.885 121.684h22.322L82.312 149.83z"/>
                <path fill="#3364E0" d="M92.812 150.846l-13.53 21.21-2.826-21.745z"/>
            </g>
            <g fill="#D4A181">
                <path d="M150.825 130.231l-13.332 1.043 2.385-13.393 13.925 1.173z"/>
                <path d="M162.045 129.583c-3.919 3.358-9.82 2.903-13.179-1.017a9.346 9.346 0 0 1 1.016-13.178 9.346 9.346 0 0 1 13.18 1.016 9.346 9.346 0 0 1-1.017 13.179"/>
                <path d="M156.447 113.157s-1.696-3.91-5.654-1.013c-3.958 2.896-7.47 8.825-1.926 16.422l7.58-15.41zM156.447 113.105l10.736-2.7c.889-.29 1.882.191 2.187 1.061a1.517 1.517 0 0 1-.805 1.897l-10.906 4.878-1.212-5.136z"/>
            </g>
            <g>
                <path fill="#FFCD2E" d="M100.484 94.475l17.611 27.865a9.74 9.74 0 0 1-16.638 10.107l-19.414-26.77A10.795 10.795 0 0 1 83.424 92.1c5.066-5.065 13.57-3.88 17.06 2.375"/>
                <path fill="#F2BB19" d="M94.973 123.626l1.04-15.255 3.782 21.912z"/>
                <path fill="#FFCD2E" d="M108.953 119.551l38.773-4.555-.123 17.707-36.059 4.647c-5.688 1.102-10.922-3.378-10.71-9.169a9.002 9.002 0 0 1 8.12-8.63M42.992 121.96l-.427 39.036-17.102-.803-.455-37.934c-.368-5.783 4.743-10.403 10.46-9.454a9.004 9.004 0 0 1 7.524 9.154"/>
                <path fill="#FFCD2E" d="M64.954 105.613l-23.59 23.024a9.74 9.74 0 0 1-13.347-14.17l22.144-24.56a10.795 10.795 0 0 1 13.566-1.475c6.01 3.902 6.62 12.466 1.227 17.181"/>
                <path fill="#FFCD2E" d="M91.281 88.902l-33.546-2.206c-3.024-.199-8.418 5.294-8.1 8.31l-.019 54.427 43.196 1.413 4.386-55.248a6.344 6.344 0 0 0-5.917-6.696"/>
                <path fill="#F2BB19" d="M49.616 120.584l9.742-9.508-9.738 25.75z"/>
            </g>
            <g transform="translate(10 157.63)">
                <path fill="#D4A181" d="M31.852 14.42s4.325.348 3.619-4.596C34.764 4.88 31.118-1.113 21.636.229l10.216 14.19z"/>
                <rect width="46" height="40" y="10.682" fill="#FFF" rx="3"/>
                <path fill="#D4A181" d="M14.411 11.584A9.516 9.516 0 0 1 21.636.229c5.13-1.141 10.214 2.093 11.355 7.224a9.517 9.517 0 0 1-18.58 4.131"/>
            </g>
            <g>
                <path fill="#D4A181" d="M83.234 77.15l-.205 10.957c-.064 3.85-2.396 5.86-6.064 5.753-3.13-.09-6.543-1.673-6.342-5.064L71.75 71.57l11.485 5.58z"/>
                <path fill="#272727" d="M83.122 84.437s-8.94.585-11.524-9.517c-.814-3.182 11.678 1.106 11.678 1.106l-.154 8.41z" opacity=".1"/>
                <path fill="#D4A181" d="M79.886 80.28c6.257.13 11.516-4.867 11.797-10.14l.529-11.035c.352-6.61-4.436-12.31-10.821-12.884-6.537-.587-13.449 4.307-14.025 11.058l-.308 8.604c-.285 7.746 5.35 13.724 12.828 14.396"/>
                <path stroke="#312725" stroke-linecap="round" stroke-linejoin="round" stroke-width=".597" d="M85.175 65.304l.292 3.607-1.548.031"/>
                <path fill="#312725" d="M78.387 57.998s2.567-.172 2.574.906c0 0-.015.73-2.254.834-2.24.105-2.818-.074-3.01-.763-.192-.69 1.488-.992 2.69-.977M89.098 60.528s-2.112-.263-2.303.746c0 0-.113.683 1.737.871 1.85.187 2.457-.045 2.642-.595.21-.623-1.07-.988-2.076-1.022M87.484 64.63c-.03.612.426 1.134 1.02 1.165.594.03 1.099-.442 1.13-1.055.03-.613-.426-1.134-1.02-1.165-.594-.03-1.1.441-1.13 1.054M78.062 64.137c-.03.613.426 1.135 1.02 1.166.593.03 1.1-.442 1.13-1.055.03-.613-.427-1.134-1.02-1.165-.594-.03-1.1.441-1.13 1.054"/>
                <path stroke="#312725" stroke-linecap="round" stroke-linejoin="round" stroke-width=".597" d="M80.655 70.501c.059.177 1.532 1.708 3.594 1.178"/>
                <path fill="#272727" d="M89.635 40.862c-2.398-1.031-8.516-2.165-9.865 3.245-6.089-.465-15.776-.352-16.749 4.926-1.429 7.754 4.075 15.439 4.075 15.439l1.548.788s3.932-2.05 2.916-11.326c0 0 14.07 3.392 20.67-.178 6.6-3.569 4.604-9.798-2.595-12.894"/>
                <path fill="#D4A181" d="M61.31 65.556c-.213 2.5 1.576 4.703 3.997 4.92 2.421.217 4.556-1.633 4.77-4.133.212-2.499-1.577-4.702-3.997-4.919-2.42-.218-4.557 1.632-4.77 4.132"/>
                <path stroke="#312725" stroke-linecap="round" stroke-linejoin="round" stroke-width=".597" d="M67.097 67.171s.28-3.282-2.803-3.038"/>
                <path fill="#D4A181" d="M66.384 87.265l20.077 1.32s.636 6.92-8.293 6.444c-10.049-.537-11.784-7.764-11.784-7.764"/>
            </g>
        </g>
        <g>
            <path fill="#D4A181" d="M478.29 254.657l-19.794-9.229 7.142-11.122 21.517 10.455-6.31 8.803z"/>
            <path fill="#181F42" d="M482.25 240.445s-2.717 12.123-12.153 11.885l-2.321 28.691 26.142-36.464-11.667-4.112z"/>
            <path fill="#FFF" d="M471.22 283.491l26.142-36.464-3.445-2.47-26.14 36.464z"/>
            <path stroke="#FFF" stroke-linecap="round" stroke-linejoin="round" stroke-width="1.548" d="M469.792 256.082s2.137-.794 5.382-.792M469.18 260.294s2.136-.794 5.382-.793M468.568 264.506s2.136-.794 5.382-.793"/>
            <path fill="#D4A181" d="M449.789 287.648l-4.034-21.465 13.2-.677 4.04 23.58h-10.831z"/>
            <path fill="#2C41AE" d="M432.347 134.152s-12.935 48.268-14.838 57.784c-1.903 9.517-5.71 28.551 2.284 35.404 7.994 6.852 38.702 23.285 38.702 23.285l11.297-20.282-18.297-10.998-19.148-85.193z"/>
            <path fill="#3364E0" d="M432.347 134.152s-12.935 48.268-14.838 57.784c-1.903 9.517-5.71 28.551 2.284 35.404 7.994 6.852 38.702 23.285 38.702 23.285l11.297-20.282-18.297-10.998-19.148-85.193z" opacity=".8"/>
            <path fill="#3364E0" d="M432.347 134.152l-1.284 72.815a40.277 40.277 0 0 0 .621 7.791l10.818 56.158h22.638l-6.316-63.333c.267-11.649 4.131-24.694 5.578-38.899 0 0 4.437-26.35-7.729-34.399l-24.326-.133z"/>
            <g>
                <path fill="#181F42" d="M463.645 282.585s-11.436 4.854-16.74-2.953l-24.67 14.831h44.866l-3.456-11.878z"/>
                <path fill="#FFF" d="M422.235 298.7H467.1v-4.236h-44.866z"/>
                <path stroke="#FFF" stroke-linecap="round" stroke-linejoin="round" stroke-width="1.548" d="M443.678 281.571s1.891 1.273 3.78 3.912M439.898 283.527s1.891 1.273 3.78 3.912M436.119 285.484s1.89 1.273 3.779 3.912"/>
            </g>
            <g transform="translate(322 72.984)">
                <path fill="#D4A181" d="M95.859 51.175L58.847 37.633l-4.302 7.207 36.082 19.123c6.007 2.29 12.211-2.865 11.058-9.19-.528-2.907-3.043-2.608-5.826-3.598"/>
                <path fill="#D4A181" d="M54.3 32.139c-.655-.702-1.699-1.027-2.587-.807-1.209.3-1.69 1.483-1.042 2.554l.532.877c-1.188.454-3.639.57-8.126-3.962-.755-.762-1.996-.943-2.77-.403-.607.422-.75 1.158-.423 1.824.015.03.037.06.054.09-.624-.203-1.305-.153-1.798.19-.606.422-.749 1.158-.423 1.824.043.087.096.173.155.257a1.79 1.79 0 0 0-.844.293c-.606.422-.75 1.158-.423 1.824.091.186.22.367.384.533.06.06.12.113.177.172-.026.016-.056.026-.082.045-.606.42-.749 1.158-.423 1.823.092.187.22.367.385.533 1.24 1.252 2.466 2.29 3.671 3.126l-.004.002.058.037c.57.393 1.132.733 1.691 1.032 2.593 1.506 8.141.243 12.912 1.012l3.724-7.028-4.799-5.848z"/>
                <rect width="46" height="40" x="6" y="7" fill="#3BD550" rx="3" transform="rotate(20 29 27)"/>
                <path fill="#D4A181" d="M54.91 32.882l-3.628-4.228a1.477 1.477 0 0 0-2.437 1.63l1.827 3.6s-1.563 4.902 2.16 9.149l2.078-10.151zM112.263 51.954l-13.475 10.76a8.24 8.24 0 0 1-9.47.574c-4.17-2.573-6.719-4.948-3.716-8.82l14.801-15.01 11.86 12.496z"/>
            </g>
            <g fill="#D4A181">
                <path d="M471.273 123.74c-1.896-2.266-4.216-3.283-3.198-6.056 2.214-6.036 10.202-7.357 14.191-2.315 7.597 9.601 23.946 40.038 23.946 40.038l-6.449 4.271-28.49-35.939zm29.87 43.167l-1.38-7.229 6.45-4.27c3.718 2.875 9.045 4.377 10.56 6.87.337.514.66 1.067.965 1.667l.031.06h-.004c.641 1.273 1.206 2.731 1.682 4.376.063.218.09.432.081.634-.032.721-.496 1.284-1.209 1.362-.03.004-.062 0-.092 0 .023.078.05.15.071.228.064.22.09.434.081.635-.03.721-.496 1.283-1.209 1.361a1.72 1.72 0 0 1-.858-.142c.012.1.017.197.013.292-.03.72-.495 1.283-1.209 1.361-.58.065-1.186-.21-1.625-.675.001.034.005.07.005.103-.03.721-.497 1.283-1.209 1.362-.915.1-1.89-.63-2.18-1.633-1.726-5.959-3.873-7-5.1-7.165l.047.997c.057 1.218-.905 2.004-2.078 1.698-.86-.225-1.6-.989-1.834-1.892z"/>
                <path d="M467.024 101.585l12.962 11.372a8.242 8.242 0 0 1 2.23 9.224c-1.8 4.556-3.69 7.483-8.029 5.208l-17.378-11.931 10.215-13.873z"/>
            </g>
            <g>
                <path fill="#F2BB19" d="M444.699 112.054s-1.792 8.843-12.42 16.867l-16.384-15.47 13.259-14.776 15.545 13.38z"/>
                <path fill="#FFCD2E" d="M449.336 93.652s11.096.19 20.883 9.219l-8.828 16.419-17.357-6.021 5.302-19.617z"/>
                <path fill="#FFCD2E" d="M435.285 94.63s-10.774 2.979-10.811 17.425c-.02 7.887 7.873 22.097 7.873 22.097l24.327.133s3.57-9.91 5.71-18.865c2.138-8.956-4.708-17.47-13.047-21.768l-14.052.979z"/>
                <path fill="#F2BB19" d="M461.391 119.29l-9.546-6.847 7.363 14.258z"/>
            </g>
            <g>
                <path fill="#D4A181" d="M441.418 99.258c3.374-.503 4.571-2.763 4.068-6.138l-3.75-19.34-10.179 1.63 2.84 18.65a6.176 6.176 0 0 0 7.021 5.198"/>
                <path fill="#272727" d="M439.408 77.608s3.3 10.31-5.45 13.815l-.81-6.154 8.989-6.8" opacity=".1"/>
                <path fill="#D4A181" d="M431.864 86.594c6.356-.602 11.073-5.688 10.536-11.362l-1.76-18.575-10.714.031c-3.95.374-9.383 5.612-9.05 9.137l1.87 11.534c.389 4.122 3.775 9.741 9.118 9.235"/>
                <path fill="#D4A181" d="M423.24 70.619l-2.438 6.222c-.394.642.148 1.419.938 1.343l4.19-.39-2.69-7.175z"/>
                <path fill="#272727" d="M425.372 67.728s-2.284.063-2.2 1.017c0 0 .074.644 2.063.55 1.99-.096 2.486-.303 2.598-.928.112-.625-1.4-.753-2.461-.639M425.494 72.233c.078.539-.282 1.039-.805 1.116-.522.076-1.008-.3-1.088-.838-.078-.54.283-1.04.805-1.116.523-.077 1.009.298 1.088.838"/>
                <path stroke="#312725" stroke-linecap="round" stroke-linejoin="round" stroke-width=".597" d="M424.763 79.473s1.593 0 2.334-1.865"/>
                <path fill="#D4A181" d="M442.441 92.55l6.896 1.102s-7.245 11.736-14.375 8.921c-8.221-3.247 2.68-9.417 2.68-9.417l4.799-.606z"/>
                <path fill="#272727" d="M439.545 71.464c-5.382-1.375-6.406-6.423-6.406-6.423l-14.252 2.814s-2.206-14.196 14.851-16.872c8.553-1.342 14.016 2.792 16.9 6.927 2.746 3.938 3.015 9.093 1.095 13.493-1.36 3.122-4.862 7.49-8.68 9.484l-1.318-7.106s-1.23-2.072-2.19-2.317"/>
                <path fill="#D4A181" d="M446.382 70.439c-.023 2.531-2.03 4.572-4.48 4.561-2.453-.012-4.42-2.073-4.397-4.604.023-2.53 2.03-4.572 4.481-4.56 2.452.012 4.42 2.073 4.396 4.603"/>
                <path stroke="#312725" stroke-linecap="round" stroke-linejoin="round" stroke-width=".603" d="M440.418 71.51s.03-3.322 3.103-2.784"/>
                <path fill="#272727" d="M469.07 52.238c1.019 6.035-3.048 11.752-9.082 12.771-6.034 1.02-11.753-3.047-12.772-9.082-1.02-6.034 3.047-11.752 9.083-12.77 6.034-1.02 11.75 3.046 12.77 9.081"/>
            </g>
        </g>
        <g>
            <path fill="#3BD550" d="M50 18v6.551a.6.6 0 0 1-1.024.425L42 18H3a3 3 0 0 1-3-3V3a3 3 0 0 1 3-3h54a3 3 0 0 1 3 3v12a3 3 0 0 1-3 3h-7z"/>
            <rect width="40" height="1.2" x="10" y="7" fill="#FFF" rx=".6"/>
            <rect width="15" height="1.2" x="10" y="11" fill="#FFF" rx=".6"/>
        </g>
    </g>
</svg>
