<?xml version="1.0" encoding="utf-8"?>
<!-- Generator: Adobe Illustrator 22.0.0, SVG Export Plug-In . SVG Version: 6.00 Build 0)  -->
<svg version="1.1" id="Capa_1" xmlns="http://www.w3.org/2000/svg" xmlns:xlink="http://www.w3.org/1999/xlink" x="0px" y="0px"
	 viewBox="0 0 280 67" style="enable-background:new 0 0 280 67;" width="280" height="67" xml:space="preserve">
<style type="text/css">
	.st0{fill:#FDDA00;}
	.st1{fill:#FFFFFF;}
	.st2{enable-background:new    ;}
</style>
<path class="st0" d="M62.1,27.2c-2.5,4.6-7,7.8-13.3,7.8c-10.1,0-15.8-8.1-15.8-17.6C33.1,8.4,38.6,0,48.7,0
	c6.5,0,11.1,3.3,13.6,8.3l-6.5,3.3C54.3,8.3,51.5,7,49.1,7c-4.7,0-7.5,4.1-7.5,10.2c0,8.1,4.2,10.7,7.9,10.7c2.9,0,5.1-1.6,6.3-4.2
	L62.1,27.2z M72.6,17.2c0,8.1,4.3,10.7,8.1,10.7c4.5,0,7.5-4.3,7.5-10.2C88.2,9.9,84,7,80.3,7C75.6,7,72.6,11.1,72.6,17.2z M64,17.4
	C64,8.4,69.7,0,80.3,0c10.5,0,16.4,8.1,16.4,17.6C96.7,26.6,91,35,80.4,35C69.9,35,64,26.9,64,17.4z M8.5,13.8h13.1
	c0-5.3-3.9-7.3-6.5-7.3C11.7,6.5,8.5,9.4,8.5,13.8z M8.4,20.4c0.3,4.9,4.1,7.5,8.3,7.5c3,0,6.1-1.3,8.1-3.9l5.3,4.3
	c-3,3.9-6.9,6.7-14.4,6.7C5.7,35,0,26.9,0,17.4C0,8.4,5.5,0,15.6,0c7,0,14.7,4.9,14.7,17.8c0,0.9-0.1,1.7-0.1,2.6
	C30.2,20.4,8.4,20.4,8.4,20.4z"/>
<path class="st1" d="M258.5,0.8h8.7v26H280v7.3h-21.5V0.8z M230.3,17.2c0,8.1,4.3,10.7,8.1,10.7c4.5,0,7.5-4.3,7.5-10.2
	c0-7.8-4.2-10.7-7.9-10.7C233.3,7,230.3,11.1,230.3,17.2z M221.8,17.4c0-8.9,5.7-17.4,16.3-17.4c10.5,0,16.4,8.1,16.4,17.6
	c0,8.9-5.7,17.4-16.3,17.4C227.7,35,221.8,26.9,221.8,17.4L221.8,17.4z M200.1,7.7v7.7h7.3c2.3,0,3.8-1.7,3.8-3.8
	c0-2.1-1.4-3.9-3.7-3.9C207.6,7.7,200.1,7.7,200.1,7.7z M203.3,22h-3.1v12.1h-8.7V0.8h16c7.5,0,11.9,4.8,11.9,10.6
	c0,4.4-2.5,8.1-6.9,9.8l7.9,12.9h-9.9L203.3,22L203.3,22z M188.4,0.8v7.3h-8.7v26H171v-26h-8.7V0.8H188.4L188.4,0.8z M139.4,13.8
	h13.1c0-5.3-3.9-7.3-6.5-7.3C142.6,6.5,139.4,9.4,139.4,13.8L139.4,13.8z M139.3,20.4c0.3,4.9,4.1,7.5,8.3,7.5c3,0,6.1-1.3,8.1-3.9
	l5.3,4.3c-3,3.9-6.9,6.7-14.4,6.7c-10.1,0-15.8-8.1-15.8-17.6c0-8.9,5.5-17.4,15.6-17.4c7,0,14.7,4.9,14.7,17.8
	c0,0.9-0.1,1.7-0.1,2.6H139.3L139.3,20.4z M109.8,7.9v8.4h7.3c2.3,0,3.8-1.9,3.8-4.2c0-2.3-1.4-4.2-3.7-4.2
	C117.2,7.9,109.8,7.9,109.8,7.9z M117.2,0.8c7.5,0,11.9,5.1,11.9,11.3c0,6.2-4.5,11.3-11.9,11.3h-7.3v10.8h-8.7V0.8
	C101.2,0.8,117.2,0.8,117.2,0.8z"/>
<g class="st2">
	<path class="st1" d="M5.5,44.7c0.6,0,1.2,0.1,1.7,0.3c0.5,0.2,1,0.5,1.3,0.9c0.4,0.4,0.7,0.9,0.9,1.4s0.3,1.2,0.3,1.9
		c0,0.3,0,0.5-0.1,0.6c-0.1,0.1-0.2,0.1-0.3,0.1H2.5c0,0.6,0.1,1.2,0.3,1.7c0.2,0.5,0.4,0.9,0.7,1.2c0.3,0.3,0.6,0.6,1,0.7
		c0.4,0.2,0.8,0.2,1.3,0.2c0.4,0,0.8-0.1,1.2-0.2s0.6-0.2,0.8-0.3s0.4-0.2,0.6-0.3s0.3-0.2,0.4-0.2c0.1,0,0.3,0.1,0.3,0.2l0.5,0.7
		c-0.2,0.3-0.5,0.5-0.8,0.7c-0.3,0.2-0.6,0.4-1,0.5C7.4,54.9,7.1,55,6.7,55c-0.4,0.1-0.7,0.1-1.1,0.1c-0.7,0-1.3-0.1-1.9-0.4
		c-0.6-0.2-1.1-0.6-1.5-1s-0.8-1-1-1.7c-0.2-0.7-0.4-1.4-0.4-2.3c0-0.7,0.1-1.4,0.3-2s0.5-1.1,0.9-1.6s0.9-0.8,1.5-1.1
		C4.1,44.8,4.7,44.7,5.5,44.7z M5.5,46c-0.9,0-1.5,0.2-2,0.7C3,47.3,2.7,48,2.6,48.8h5.5c0-0.4-0.1-0.8-0.2-1.1
		c-0.1-0.3-0.3-0.6-0.5-0.9c-0.2-0.3-0.5-0.4-0.8-0.6C6.3,46.1,5.9,46,5.5,46z"/>
	<path class="st1" d="M16.2,55V44.9h1.1c0.3,0,0.4,0.1,0.5,0.4l0.1,1.1c0.4-0.5,0.9-0.9,1.5-1.2c0.5-0.3,1.2-0.5,1.9-0.5
		c0.6,0,1,0.1,1.5,0.3c0.4,0.2,0.8,0.4,1.1,0.8c0.3,0.3,0.5,0.7,0.6,1.2c0.1,0.5,0.2,1,0.2,1.6V55h-1.8v-6.5c0-0.8-0.2-1.4-0.5-1.8
		c-0.4-0.4-0.9-0.6-1.6-0.6c-0.5,0-1,0.1-1.5,0.4c-0.5,0.3-0.9,0.6-1.3,1V55H16.2z"/>
	<path class="st1" d="M35.7,44.7c0.6,0,1.2,0.1,1.7,0.3c0.5,0.2,1,0.5,1.3,0.9c0.4,0.4,0.7,0.9,0.9,1.4s0.3,1.2,0.3,1.9
		c0,0.3,0,0.5-0.1,0.6c-0.1,0.1-0.2,0.1-0.3,0.1h-6.7c0,0.6,0.1,1.2,0.3,1.7c0.2,0.5,0.4,0.9,0.7,1.2c0.3,0.3,0.6,0.6,1,0.7
		c0.4,0.2,0.8,0.2,1.3,0.2c0.4,0,0.8-0.1,1.2-0.2s0.6-0.2,0.8-0.3s0.4-0.2,0.6-0.3s0.3-0.2,0.4-0.2c0.1,0,0.3,0.1,0.3,0.2l0.5,0.7
		c-0.2,0.3-0.5,0.5-0.8,0.7c-0.3,0.2-0.6,0.4-1,0.5c-0.4,0.1-0.7,0.2-1.1,0.3c-0.4,0.1-0.7,0.1-1.1,0.1c-0.7,0-1.3-0.1-1.9-0.4
		c-0.6-0.2-1.1-0.6-1.5-1s-0.8-1-1-1.7c-0.2-0.7-0.4-1.4-0.4-2.3c0-0.7,0.1-1.4,0.3-2s0.5-1.1,0.9-1.6s0.9-0.8,1.5-1.1
		C34.3,44.8,34.9,44.7,35.7,44.7z M35.7,46c-0.9,0-1.5,0.2-2,0.7c-0.5,0.5-0.8,1.2-0.9,2.1h5.5c0-0.4-0.1-0.8-0.2-1.1
		c-0.1-0.3-0.3-0.6-0.5-0.9c-0.2-0.3-0.5-0.4-0.8-0.6C36.5,46.1,36.1,46,35.7,46z"/>
	<path class="st1" d="M46.4,55V44.9h1c0.2,0,0.3,0,0.4,0.1c0.1,0.1,0.1,0.2,0.1,0.4l0.1,1.6c0.3-0.7,0.8-1.3,1.3-1.7
		c0.5-0.4,1.1-0.6,1.8-0.6c0.3,0,0.5,0,0.8,0.1c0.2,0.1,0.4,0.2,0.6,0.3l-0.2,1.3c0,0.2-0.1,0.3-0.3,0.3c-0.1,0-0.2,0-0.4-0.1
		s-0.5-0.1-0.8-0.1c-0.6,0-1.1,0.2-1.6,0.5c-0.4,0.4-0.8,0.9-1,1.6V55H46.4z"/>
	<path class="st1" d="M62.2,44.7c0.4,0,0.9,0,1.2,0.1s0.7,0.2,1,0.4h2.8v0.7c0,0.2-0.1,0.4-0.4,0.4l-1.1,0.2
		c0.2,0.4,0.3,0.9,0.3,1.5c0,0.5-0.1,0.9-0.3,1.3c-0.2,0.4-0.5,0.7-0.8,1c-0.3,0.3-0.7,0.5-1.2,0.7s-1,0.2-1.5,0.2
		c-0.5,0-0.9-0.1-1.3-0.2c-0.2,0.1-0.4,0.3-0.5,0.4c-0.1,0.2-0.2,0.3-0.2,0.5c0,0.2,0.1,0.4,0.3,0.6c0.2,0.1,0.5,0.2,0.8,0.3
		c0.3,0.1,0.7,0.1,1.1,0.1s0.8,0,1.2,0s0.8,0,1.2,0.1s0.8,0.2,1.1,0.4c0.3,0.2,0.6,0.4,0.8,0.7s0.3,0.7,0.3,1.2
		c0,0.4-0.1,0.9-0.3,1.3c-0.2,0.4-0.5,0.8-0.9,1.1c-0.4,0.3-0.9,0.6-1.5,0.8s-1.3,0.3-2,0.3c-0.7,0-1.4-0.1-1.9-0.2s-1-0.3-1.4-0.6
		s-0.6-0.5-0.8-0.9c-0.2-0.3-0.3-0.7-0.3-1c0-0.5,0.2-0.9,0.5-1.3c0.3-0.4,0.8-0.6,1.3-0.8c-0.3-0.1-0.5-0.3-0.7-0.5
		c-0.2-0.2-0.3-0.5-0.3-0.9c0-0.1,0-0.3,0.1-0.5c0.1-0.2,0.1-0.3,0.2-0.5s0.2-0.3,0.4-0.4c0.2-0.1,0.3-0.3,0.6-0.4
		c-0.5-0.3-0.9-0.7-1.2-1.1c-0.3-0.5-0.4-1-0.4-1.6c0-0.5,0.1-0.9,0.3-1.3s0.5-0.7,0.8-1c0.3-0.3,0.7-0.5,1.2-0.7
		C61.1,44.8,61.6,44.7,62.2,44.7z M65.4,55.5c0-0.3-0.1-0.5-0.2-0.6c-0.1-0.2-0.3-0.3-0.6-0.4s-0.5-0.1-0.8-0.2
		c-0.3,0-0.6-0.1-1-0.1c-0.3,0-0.7,0-1.1,0c-0.4,0-0.7,0-1-0.1c-0.4,0.2-0.7,0.4-0.9,0.7c-0.2,0.3-0.4,0.6-0.4,0.9
		c0,0.2,0.1,0.4,0.2,0.6c0.1,0.2,0.3,0.4,0.5,0.5c0.2,0.1,0.5,0.3,0.9,0.3c0.4,0.1,0.8,0.1,1.3,0.1c0.5,0,0.9,0,1.3-0.1
		c0.4-0.1,0.7-0.2,1-0.4c0.3-0.2,0.5-0.4,0.6-0.6C65.3,56,65.4,55.8,65.4,55.5z M62.2,50c0.4,0,0.7,0,1-0.1c0.3-0.1,0.5-0.2,0.7-0.4
		c0.2-0.2,0.3-0.4,0.4-0.6s0.1-0.5,0.1-0.8c0-0.6-0.2-1.1-0.6-1.5c-0.4-0.4-0.9-0.5-1.6-0.5c-0.7,0-1.3,0.2-1.6,0.5
		C60.2,46.9,60,47.4,60,48c0,0.3,0,0.6,0.1,0.8s0.2,0.5,0.4,0.6c0.2,0.2,0.4,0.3,0.7,0.4C61.5,50,61.9,50,62.2,50z"/>
	<path class="st1" d="M77.4,40.5L75,43.1c-0.1,0.1-0.2,0.2-0.3,0.2c-0.1,0-0.2,0.1-0.3,0.1h-1.1l1.5-2.4c0.1-0.2,0.2-0.3,0.3-0.3
		c0.1-0.1,0.3-0.1,0.5-0.1H77.4z M75.3,44.9V55h-1.8V44.9H75.3z"/>
	<path class="st1" d="M90.2,55h-0.8c-0.2,0-0.3,0-0.4-0.1c-0.1-0.1-0.2-0.2-0.2-0.3l-0.2-0.9c-0.3,0.2-0.5,0.5-0.8,0.6
		c-0.3,0.2-0.5,0.3-0.8,0.5c-0.3,0.1-0.6,0.2-0.9,0.3c-0.3,0.1-0.7,0.1-1.1,0.1c-0.4,0-0.8-0.1-1.1-0.2s-0.6-0.3-0.9-0.5
		s-0.5-0.5-0.6-0.8s-0.2-0.7-0.2-1.2c0-0.4,0.1-0.8,0.3-1.2s0.6-0.7,1.1-1c0.5-0.3,1.1-0.5,1.9-0.7c0.8-0.2,1.8-0.3,2.9-0.3v-0.8
		c0-0.8-0.2-1.4-0.5-1.8c-0.3-0.4-0.8-0.6-1.5-0.6c-0.4,0-0.8,0.1-1.1,0.2c-0.3,0.1-0.6,0.2-0.8,0.4c-0.2,0.1-0.4,0.3-0.6,0.4
		c-0.2,0.1-0.3,0.2-0.5,0.2c-0.1,0-0.2,0-0.3-0.1C83.1,47,83.1,47,83,46.9l-0.3-0.6c0.6-0.5,1.2-0.9,1.8-1.2
		c0.6-0.3,1.4-0.4,2.1-0.4c0.6,0,1.1,0.1,1.5,0.3s0.8,0.4,1.1,0.8c0.3,0.3,0.5,0.7,0.7,1.2s0.2,1,0.2,1.6V55z M85.6,53.9
		c0.3,0,0.6,0,0.9-0.1c0.3-0.1,0.5-0.2,0.7-0.3c0.2-0.1,0.5-0.3,0.7-0.4s0.4-0.4,0.6-0.6v-2.1c-0.8,0-1.5,0.1-2.1,0.2
		c-0.6,0.1-1,0.2-1.4,0.4c-0.4,0.2-0.6,0.4-0.8,0.6c-0.2,0.2-0.2,0.5-0.2,0.8c0,0.3,0,0.5,0.1,0.7c0.1,0.2,0.2,0.4,0.4,0.5
		s0.3,0.2,0.5,0.3C85.1,53.9,85.3,53.9,85.6,53.9z"/>
	<path class="st1" d="M105.3,58.4V44.9h1.1c0.3,0,0.4,0.1,0.5,0.4l0.1,1.2c0.4-0.5,0.9-1,1.5-1.3s1.2-0.5,1.9-0.5
		c0.6,0,1.1,0.1,1.6,0.3c0.5,0.2,0.9,0.6,1.2,1c0.3,0.4,0.6,1,0.8,1.6c0.2,0.6,0.3,1.4,0.3,2.2c0,0.7-0.1,1.4-0.3,2.1
		c-0.2,0.6-0.5,1.2-0.9,1.7s-0.8,0.8-1.4,1.1c-0.5,0.3-1.2,0.4-1.8,0.4c-0.6,0-1.2-0.1-1.6-0.3c-0.4-0.2-0.8-0.5-1.2-0.9v4.5H105.3z
		 M109.8,46.1c-0.6,0-1.1,0.1-1.5,0.4s-0.8,0.6-1.2,1.1v4.9c0.3,0.4,0.7,0.8,1.1,0.9c0.4,0.2,0.8,0.3,1.3,0.3c0.9,0,1.7-0.3,2.2-1
		c0.5-0.7,0.8-1.6,0.8-2.9c0-0.7-0.1-1.2-0.2-1.7s-0.3-0.9-0.5-1.2c-0.2-0.3-0.5-0.5-0.8-0.7C110.6,46.2,110.3,46.1,109.8,46.1z"/>
	<path class="st1" d="M128.1,55h-0.8c-0.2,0-0.3,0-0.4-0.1c-0.1-0.1-0.2-0.2-0.2-0.3l-0.2-0.9c-0.3,0.2-0.5,0.5-0.8,0.6
		c-0.3,0.2-0.5,0.3-0.8,0.5c-0.3,0.1-0.6,0.2-0.9,0.3c-0.3,0.1-0.7,0.1-1.1,0.1c-0.4,0-0.8-0.1-1.1-0.2s-0.6-0.3-0.9-0.5
		s-0.5-0.5-0.6-0.8s-0.2-0.7-0.2-1.2c0-0.4,0.1-0.8,0.3-1.2s0.6-0.7,1.1-1c0.5-0.3,1.1-0.5,1.9-0.7c0.8-0.2,1.8-0.3,2.9-0.3v-0.8
		c0-0.8-0.2-1.4-0.5-1.8c-0.3-0.4-0.8-0.6-1.5-0.6c-0.4,0-0.8,0.1-1.1,0.2c-0.3,0.1-0.6,0.2-0.8,0.4c-0.2,0.1-0.4,0.3-0.6,0.4
		c-0.2,0.1-0.3,0.2-0.5,0.2c-0.1,0-0.2,0-0.3-0.1c-0.1-0.1-0.2-0.1-0.2-0.2l-0.3-0.6c0.6-0.5,1.2-0.9,1.8-1.2
		c0.6-0.3,1.4-0.4,2.1-0.4c0.6,0,1.1,0.1,1.5,0.3s0.8,0.4,1.1,0.8c0.3,0.3,0.5,0.7,0.7,1.2s0.2,1,0.2,1.6V55z M123.5,53.9
		c0.3,0,0.6,0,0.9-0.1c0.3-0.1,0.5-0.2,0.7-0.3c0.2-0.1,0.5-0.3,0.7-0.4s0.4-0.4,0.6-0.6v-2.1c-0.8,0-1.5,0.1-2.1,0.2
		c-0.6,0.1-1,0.2-1.4,0.4c-0.4,0.2-0.6,0.4-0.8,0.6c-0.2,0.2-0.2,0.5-0.2,0.8c0,0.3,0,0.5,0.1,0.7c0.1,0.2,0.2,0.4,0.4,0.5
		s0.3,0.2,0.5,0.3C123,53.9,123.3,53.9,123.5,53.9z"/>
	<path class="st1" d="M135.1,55V44.9h1c0.2,0,0.3,0,0.4,0.1c0.1,0.1,0.1,0.2,0.1,0.4l0.1,1.6c0.3-0.7,0.8-1.3,1.3-1.7
		c0.5-0.4,1.1-0.6,1.8-0.6c0.3,0,0.5,0,0.8,0.1c0.2,0.1,0.4,0.2,0.6,0.3l-0.2,1.3c0,0.2-0.2,0.3-0.3,0.3c-0.1,0-0.2,0-0.4-0.1
		s-0.5-0.1-0.8-0.1c-0.6,0-1.1,0.2-1.6,0.5c-0.4,0.4-0.8,0.9-1,1.6V55H135.1z"/>
	<path class="st1" d="M154.5,55h-0.8c-0.2,0-0.3,0-0.4-0.1c-0.1-0.1-0.2-0.2-0.2-0.3l-0.2-0.9c-0.3,0.2-0.5,0.5-0.8,0.6
		c-0.3,0.2-0.5,0.3-0.8,0.5c-0.3,0.1-0.6,0.2-0.9,0.3c-0.3,0.1-0.7,0.1-1.1,0.1c-0.4,0-0.8-0.1-1.1-0.2s-0.6-0.3-0.9-0.5
		c-0.3-0.2-0.5-0.5-0.6-0.8s-0.2-0.7-0.2-1.2c0-0.4,0.1-0.8,0.3-1.2c0.2-0.4,0.6-0.7,1.1-1s1.1-0.5,1.9-0.7c0.8-0.2,1.8-0.3,2.9-0.3
		v-0.8c0-0.8-0.2-1.4-0.5-1.8c-0.3-0.4-0.8-0.6-1.5-0.6c-0.4,0-0.8,0.1-1.1,0.2s-0.6,0.2-0.8,0.4c-0.2,0.1-0.4,0.3-0.6,0.4
		c-0.2,0.1-0.3,0.2-0.5,0.2c-0.1,0-0.2,0-0.3-0.1c-0.1-0.1-0.2-0.1-0.2-0.2l-0.3-0.6c0.6-0.5,1.2-0.9,1.8-1.2
		c0.6-0.3,1.4-0.4,2.1-0.4c0.6,0,1.1,0.1,1.5,0.3c0.4,0.2,0.8,0.4,1.1,0.8c0.3,0.3,0.5,0.7,0.7,1.2c0.2,0.5,0.2,1,0.2,1.6V55z
		 M149.9,53.9c0.3,0,0.6,0,0.9-0.1c0.3-0.1,0.5-0.2,0.7-0.3c0.2-0.1,0.4-0.3,0.7-0.4c0.2-0.2,0.4-0.4,0.6-0.6v-2.1
		c-0.8,0-1.5,0.1-2.1,0.2c-0.6,0.1-1,0.2-1.4,0.4c-0.4,0.2-0.6,0.4-0.8,0.6c-0.2,0.2-0.2,0.5-0.2,0.8c0,0.3,0,0.5,0.1,0.7
		c0.1,0.2,0.2,0.4,0.3,0.5s0.3,0.2,0.5,0.3C149.5,53.9,149.7,53.9,149.9,53.9z"/>
	<path class="st1" d="M173.7,44.7c0.6,0,1.2,0.1,1.7,0.3c0.5,0.2,1,0.5,1.3,0.9c0.4,0.4,0.7,0.9,0.9,1.4s0.3,1.2,0.3,1.9
		c0,0.3,0,0.5-0.1,0.6c-0.1,0.1-0.2,0.1-0.3,0.1h-6.7c0,0.6,0.1,1.2,0.3,1.7c0.2,0.5,0.4,0.9,0.7,1.2c0.3,0.3,0.6,0.6,1,0.7
		c0.4,0.2,0.8,0.2,1.3,0.2c0.4,0,0.8-0.1,1.2-0.2c0.3-0.1,0.6-0.2,0.8-0.3c0.2-0.1,0.4-0.2,0.6-0.3c0.2-0.1,0.3-0.2,0.4-0.2
		c0.1,0,0.3,0.1,0.3,0.2l0.5,0.7c-0.2,0.3-0.5,0.5-0.8,0.7c-0.3,0.2-0.6,0.4-1,0.5c-0.4,0.1-0.7,0.2-1.1,0.3s-0.7,0.1-1.1,0.1
		c-0.7,0-1.3-0.1-1.9-0.4s-1.1-0.6-1.5-1s-0.8-1-1-1.7c-0.2-0.7-0.4-1.4-0.4-2.3c0-0.7,0.1-1.4,0.3-2s0.5-1.1,0.9-1.6
		c0.4-0.5,0.9-0.8,1.5-1.1C172.3,44.8,173,44.7,173.7,44.7z M173.7,46c-0.9,0-1.5,0.2-2,0.7c-0.5,0.5-0.8,1.2-0.9,2.1h5.5
		c0-0.4-0.1-0.8-0.2-1.1c-0.1-0.3-0.3-0.6-0.5-0.9s-0.5-0.4-0.8-0.6C174.5,46.1,174.2,46,173.7,46z"/>
	<path class="st1" d="M186.5,40.3V55h-1.8V40.3H186.5z"/>
	<path class="st1" d="M202.5,55v-8.6l-1.1-0.1c-0.1,0-0.3-0.1-0.3-0.2c-0.1-0.1-0.1-0.2-0.1-0.3v-0.7h1.6v-1c0-0.6,0.1-1.1,0.2-1.5
		c0.2-0.5,0.4-0.8,0.7-1.1c0.3-0.3,0.7-0.5,1.1-0.7c0.4-0.2,0.9-0.2,1.4-0.2c0.5,0,0.9,0.1,1.3,0.2l0,0.9c0,0.1-0.1,0.2-0.2,0.2
		c-0.1,0-0.3,0-0.5,0h-0.3c-0.3,0-0.6,0-0.8,0.1s-0.5,0.2-0.6,0.4s-0.3,0.4-0.4,0.7c-0.1,0.3-0.1,0.7-0.1,1.1v0.9h2.9v1.3h-2.9V55
		H202.5z"/>
	<path class="st1" d="M214.6,44.9v6.5c0,0.8,0.2,1.4,0.5,1.8c0.4,0.4,0.9,0.6,1.6,0.6c0.5,0,1-0.1,1.5-0.4s0.9-0.6,1.3-1v-7.5h1.8
		V55h-1.1c-0.3,0-0.4-0.1-0.5-0.4l-0.1-1.1c-0.4,0.5-0.9,0.9-1.5,1.2s-1.2,0.4-1.9,0.4c-0.6,0-1-0.1-1.5-0.3
		c-0.4-0.2-0.8-0.4-1.1-0.8c-0.3-0.3-0.5-0.7-0.6-1.2c-0.1-0.5-0.2-1-0.2-1.6v-6.5H214.6z"/>
	<path class="st1" d="M231.6,55.2c-0.8,0-1.4-0.2-1.8-0.7c-0.4-0.4-0.6-1.1-0.6-1.9v-6.2h-1.2c-0.1,0-0.2,0-0.3-0.1
		c-0.1-0.1-0.1-0.2-0.1-0.3v-0.7l1.7-0.2l0.4-3.1c0-0.1,0.1-0.2,0.1-0.2c0.1-0.1,0.2-0.1,0.3-0.1h0.9v3.5h2.9v1.3h-2.9v6.1
		c0,0.4,0.1,0.7,0.3,0.9c0.2,0.2,0.5,0.3,0.8,0.3c0.2,0,0.3,0,0.5-0.1s0.3-0.1,0.4-0.2s0.2-0.1,0.3-0.2s0.1-0.1,0.2-0.1
		c0.1,0,0.2,0.1,0.3,0.2l0.5,0.9c-0.3,0.3-0.7,0.5-1.1,0.7C232.5,55.1,232,55.2,231.6,55.2z"/>
	<path class="st1" d="M241.8,44.9v6.5c0,0.8,0.2,1.4,0.5,1.8c0.4,0.4,0.9,0.6,1.6,0.6c0.5,0,1-0.1,1.5-0.4s0.9-0.6,1.3-1v-7.5h1.8
		V55h-1.1c-0.3,0-0.4-0.1-0.5-0.4l-0.1-1.1c-0.4,0.5-0.9,0.9-1.5,1.2s-1.2,0.4-1.9,0.4c-0.6,0-1-0.1-1.5-0.3
		c-0.4-0.2-0.8-0.4-1.1-0.8c-0.3-0.3-0.5-0.7-0.6-1.2c-0.1-0.5-0.2-1-0.2-1.6v-6.5H241.8z"/>
	<path class="st1" d="M255.7,55V44.9h1c0.2,0,0.3,0,0.4,0.1c0.1,0.1,0.1,0.2,0.1,0.4l0.1,1.6c0.3-0.7,0.8-1.3,1.3-1.7
		s1.1-0.6,1.8-0.6c0.3,0,0.5,0,0.8,0.1s0.4,0.2,0.6,0.3l-0.2,1.3c0,0.2-0.2,0.3-0.3,0.3c-0.1,0-0.2,0-0.4-0.1s-0.5-0.1-0.8-0.1
		c-0.6,0-1.1,0.2-1.6,0.5c-0.4,0.4-0.8,0.9-1,1.6V55H255.7z"/>
	<path class="st1" d="M272.2,44.7c0.7,0,1.4,0.1,2,0.4s1.1,0.6,1.5,1c0.4,0.5,0.7,1,1,1.6c0.2,0.6,0.3,1.4,0.3,2.2
		c0,0.8-0.1,1.5-0.3,2.2c-0.2,0.6-0.5,1.2-1,1.6c-0.4,0.5-0.9,0.8-1.5,1c-0.6,0.2-1.3,0.4-2,0.4c-0.7,0-1.4-0.1-2-0.4
		c-0.6-0.2-1.1-0.6-1.5-1c-0.4-0.5-0.7-1-1-1.6c-0.2-0.6-0.3-1.4-0.3-2.2c0-0.8,0.1-1.5,0.3-2.2c0.2-0.6,0.5-1.2,1-1.6
		s0.9-0.8,1.5-1C270.7,44.8,271.4,44.7,272.2,44.7z M272.2,53.8c1,0,1.7-0.3,2.2-1c0.5-0.7,0.7-1.6,0.7-2.8c0-1.2-0.2-2.1-0.7-2.8
		c-0.5-0.7-1.2-1-2.2-1c-0.5,0-0.9,0.1-1.3,0.3c-0.4,0.2-0.7,0.4-0.9,0.8c-0.3,0.3-0.4,0.7-0.6,1.2s-0.2,1-0.2,1.6
		c0,0.6,0.1,1.1,0.2,1.6c0.1,0.5,0.3,0.9,0.6,1.2s0.6,0.6,0.9,0.7C271.2,53.7,271.7,53.8,272.2,53.8z"/>
</g>
</svg>
